<svg width="296" height="59" viewBox="0 0 296 59" fill="none" xmlns="http://www.w3.org/2000/svg">
<path d="M272.688 43.2637V15.9214H278.813V28.0104H278.935C279.543 26.9557 280.192 25.9821 280.801 25.0085L287.008 15.9214H294.594L285.547 27.5642L295.081 43.2637H287.86L281.166 31.4587L278.813 34.3389V43.2637H272.688Z" fill="white"/>
<path d="M244.996 15.9214H251.203V31.6615C251.203 36.3673 252.988 38.7608 256.152 38.7608C259.397 38.7608 261.182 36.489 261.182 31.6615V15.9214H267.349V31.2558C267.349 39.6938 263.089 43.71 255.949 43.71C249.053 43.71 244.996 39.8967 244.996 31.1747V15.9214Z" fill="white"/>
<path d="M237.459 43.71H237.419C235.35 43.71 233.849 42.1279 233.849 39.9778C233.849 37.7872 235.35 36.2051 237.5 36.2051C239.65 36.2051 241.11 37.7466 241.11 39.9778C241.11 42.1279 239.65 43.71 237.459 43.71Z" fill="white"/>
<path d="M225.193 43.2637H217.972L209.209 15.9214H215.984L219.31 27.4831C220.243 30.7285 221.095 33.8521 221.744 37.2598H221.866C222.556 33.9738 223.408 30.7285 224.341 27.6048L227.829 15.9214H234.401L225.193 43.2637Z" fill="white"/>
<path d="M194.769 15.4753C203.166 15.4753 207.751 21.7633 207.751 29.3088C207.751 38.2742 202.314 43.7102 194.323 43.7102C186.209 43.7102 181.463 37.5845 181.463 29.7956C181.463 21.601 186.696 15.4753 194.769 15.4753ZM194.607 20.384C190.428 20.384 187.994 24.3596 187.994 29.6739C187.994 35.0288 190.509 38.8015 194.647 38.8015C198.826 38.8015 201.219 34.8259 201.219 29.5116C201.219 24.603 198.866 20.384 194.607 20.384Z" fill="white"/>
<path d="M177.906 27.6048V42.0062C176 42.6553 172.389 43.5478 168.779 43.5478C163.789 43.5478 160.179 42.2902 157.663 39.8561C155.148 37.5032 153.769 33.9333 153.809 29.9171C153.85 20.8301 160.463 15.6375 169.428 15.6375C172.957 15.6375 175.675 16.3271 177.014 16.9762L175.716 21.9254C174.215 21.2763 172.349 20.7489 169.347 20.7489C164.195 20.7489 160.3 23.6698 160.3 29.5926C160.3 35.2315 163.83 38.558 168.901 38.558C170.32 38.558 171.456 38.3957 171.943 38.1523V32.4323H167.724V27.6048H177.906Z" fill="white"/>
<path d="M131.398 23.4265H138.254L141.216 33.1627C141.54 34.3391 141.946 35.7995 142.189 36.8543H142.311C142.595 35.7995 142.92 34.2986 143.204 33.1627L145.638 23.4265H152.25L147.625 36.4892C144.786 44.3592 142.879 47.5235 140.648 49.5113C138.498 51.3774 136.226 52.0265 134.684 52.2293L133.386 46.9961C134.157 46.8744 135.131 46.5093 136.064 45.9414C136.997 45.4546 138.011 44.4809 138.619 43.4668C138.822 43.1828 138.944 42.8582 138.944 42.5743C138.944 42.3714 138.903 42.0469 138.66 41.5601L131.398 23.4265Z" fill="white"/>
<path d="M99.4806 43.2639V29.755C99.4806 27.2804 99.3995 25.1709 99.3184 23.4265H104.511L104.795 26.1039H104.917C105.769 24.8463 107.513 22.9802 110.921 22.9802C113.476 22.9802 115.505 24.2784 116.357 26.3473H116.438C117.168 25.2926 118.06 24.5218 118.994 23.9538C120.089 23.3048 121.306 22.9802 122.766 22.9802C126.58 22.9802 129.46 25.6577 129.46 31.5805V43.2639H123.456V32.473C123.456 29.5927 122.523 27.9294 120.535 27.9294C119.115 27.9294 118.101 28.903 117.695 30.0795C117.533 30.5257 117.452 31.1748 117.452 31.6616V43.2639H111.448V32.1484C111.448 29.6333 110.556 27.9294 108.608 27.9294C107.026 27.9294 106.093 29.1465 105.728 30.1606C105.525 30.6474 105.485 31.2154 105.485 31.7022V43.2639H99.4806Z" fill="white"/>
<path fill-rule="evenodd" clip-rule="evenodd" d="M15.3002 18.4508C17.4431 19.3672 20.0147 18.3286 20.8719 16.1903C21.7903 13.9908 20.7494 11.4248 18.484 10.5695C16.2798 9.71415 13.8307 10.7528 12.9123 12.9522C12.0551 15.0905 13.096 17.5344 15.3002 18.4508ZM5.50375 24.1326C7.70794 25.0491 10.2795 24.0105 11.1367 21.8721C12.0551 19.6727 11.0142 17.1067 8.74881 16.3124C6.54461 15.396 4.09551 16.4346 3.1771 18.6341C2.31991 20.7724 3.36078 23.2162 5.50375 24.1326ZM2.68728 34.9465C4.83024 35.8629 7.4018 34.8243 8.25899 32.6249C9.1774 30.4255 8.13653 27.9205 5.87111 27.0652C3.72815 26.1488 1.21782 27.2485 0.299405 29.3868C-0.557781 31.5252 0.483088 34.0301 2.68728 34.9465ZM26.1374 21.8721C28.2804 22.7885 30.8519 21.7499 31.7091 19.5505C32.6275 17.3511 31.5867 14.8462 29.3213 13.9908C27.1171 13.0744 24.668 14.1741 23.7496 16.3124C22.9536 18.5119 23.9945 21.0168 26.1374 21.8721ZM65.568 18.4508C63.3638 19.3672 60.7922 18.3286 59.9963 16.1903C59.0778 13.9908 60.1187 11.4248 62.3229 10.5695C64.5271 9.71415 67.0374 10.7528 67.9558 12.9522C68.7518 15.0905 67.7109 17.5344 65.568 18.4508ZM75.3031 24.1326C73.0989 25.0491 70.5886 24.0105 69.7314 21.8721C68.813 19.6727 69.8539 17.1067 71.9969 16.3124C74.201 15.396 76.7114 16.4346 77.6298 18.6341C78.5482 20.7724 77.4461 23.2162 75.3031 24.1326ZM78.1808 34.9465C75.9766 35.8629 73.4051 34.8243 72.5479 32.6249C71.6295 30.4255 72.6704 27.9205 74.9358 27.0652C77.14 26.1488 79.6503 27.2485 80.5687 29.3868C81.3647 31.5252 80.3238 34.0301 78.1808 34.9465ZM54.6695 21.8721C52.4653 22.7885 49.8937 21.7499 49.0365 19.5505C48.1793 17.3511 49.159 14.8462 51.4244 13.9908C53.6286 13.0744 56.1389 14.1741 57.0573 16.3124C57.9145 18.5119 56.8737 21.0168 54.6695 21.8721ZM42.6689 10.8139L48.1181 13.6853V5.68186L42.6689 7.39253C42.5464 7.20924 42.3627 7.02596 42.1178 6.84267L44.322 0H36.4849L38.6278 6.84267C38.4442 7.02596 38.2605 7.14815 38.0768 7.39253L32.6888 5.68186V13.6853L38.0768 10.8139C38.2605 10.9972 38.4442 11.2415 38.6278 11.3637L35.5665 20.7724V20.8335C35.444 21.3223 35.3216 21.811 35.3216 22.2998C35.3216 24.8047 37.2196 26.8819 39.6075 27.2485H39.7299C39.9136 27.2485 40.1585 27.3096 40.3422 27.3096C40.5871 27.3096 40.7708 27.3096 40.9545 27.2485H41.0769C43.526 26.8819 45.4241 24.7436 45.4241 22.2998C45.4241 21.811 45.3629 21.2612 45.1792 20.8335V20.7724L42.0566 11.3637C42.3015 11.2415 42.4852 10.9972 42.6689 10.8139ZM40.4034 56.6964C50.7509 56.6964 60.4861 57.3685 69.2416 58.6515C71.6907 48.3264 74.6909 42.339 77.8135 38.1846L71.9356 36.1073C72.5479 39.101 72.6091 40.5062 71.9356 42.339C71.0172 41.4837 70.0988 39.7119 69.3641 37.0237L66.4864 46.4324C68.2007 45.2105 69.5478 44.4774 71.0784 44.4163C68.3844 50.1592 64.9557 51.6866 62.7515 51.259C60.1187 50.7702 58.8942 48.4486 59.3228 46.4324C59.935 43.5609 62.8127 42.8278 64.221 46.1269C66.8537 40.8117 62.3841 39.1621 59.5677 40.7506C63.9148 36.3517 64.4046 32.5027 60.8534 27.8595C55.9552 31.5863 55.894 35.3742 58.0982 40.5673C55.2205 37.2681 50.6897 39.0399 52.2816 44.3552C54.3633 41.1782 57.1186 43.1333 56.69 46.2491C56.3226 48.8762 52.7714 51.0146 48.4242 50.648C42.1178 50.0981 41.7505 45.7604 41.5668 42.2168C43.0975 41.9114 45.9139 43.3166 48.3018 46.6768L49.0978 36.6572C46.5874 39.3454 44.1996 39.8952 41.5668 39.9563C42.424 37.2681 46.465 32.8693 46.465 32.8693H33.9745C33.9745 32.8693 37.8931 37.2681 38.8115 39.9563C36.24 39.8952 33.9133 39.3454 31.2805 36.6572L32.1377 46.6768C34.5256 43.3166 37.3421 41.9725 38.8115 42.2168C38.6278 45.7604 38.2605 50.037 32.0153 50.648C27.6069 51.0146 24.1169 48.8762 23.7496 46.2491C23.321 43.1944 26.0762 41.1782 28.0967 44.3552C29.7499 39.0399 25.2802 37.2681 22.3413 40.5673C24.6067 35.3742 24.5455 31.5863 19.5249 27.8595C15.9737 32.5027 16.4635 36.3517 20.8719 40.7506C17.9942 39.1621 13.5858 40.8117 16.1573 46.1269C17.5656 42.7667 20.5045 43.5609 21.1168 46.4324C21.5454 48.4486 20.3208 50.7702 17.6268 51.259C15.4838 51.6866 12.1163 50.1592 9.36108 44.4163C10.8918 44.4774 12.2388 45.2105 13.9531 46.4324L11.0755 37.0237C10.3407 39.7119 9.42231 41.4226 8.44267 42.339C7.76917 40.5062 7.89162 39.101 8.44267 36.1073L2.62605 38.1846C5.68743 42.4001 8.68758 48.3875 11.1979 58.6515C20.2596 57.3685 30.056 56.6964 40.4034 56.6964Z" fill="white"/>
</svg>
